<?xml version="1.0" encoding="ISO-8859-1" standalone="no"?>
<!DOCTYPE svg PUBLIC "-//W3C//DTD SVG 1.1//EN"
  "http://www.w3.org/Graphics/SVG/1.1/DTD/svg11.dtd"
>
<svg xmlns="http://www.w3.org/2000/svg" version="1.1"
  xmlns:xlink="http://www.w3.org/1999/xlink"
  width="594px" height="826px" >
  <title>IDL Plot</title>
  <desc>IDL Graphic, created by IDL 8.8.3, Thu May 16 11:50:44 2024</desc>

<g id="Data_Space">
  <clipPath id="Data_Spaceclip">
    <rect x="75.2" y="98.4" width="472.4" height="621.1"/>
  </clipPath>

<g id="Background">
<g>
<polygon style="fill:rgb(255,255,255);fill-opacity:0.00;"
  points="75.1,719.5 547.5,719.5 547.5,98.4 75.1,98.4" />
</g>
</g>

<g id="Plot" clip-path="url(#Data_Spaceclip)">
<g id="Plot_1">
<polyline style="fill:none;stroke-linecap:square;stroke:rgb(0,0,0);stroke-dasharray:2000,1;stroke-width:1;"
  points="481.2,502.1 480.0,598.8 478.7,626.0 477.5,405.8 476.3,616.7 475.1,573.4 473.8,468.3 472.6,533.7 471.4,568.2 470.2,570.5 469.0,410.8 467.8,467.3 466.6,634.4 465.4,284.9 464.3,513.3 463.1,666.6 461.9,490.5 460.8,387.0 459.6,594.9 458.4,578.6 457.3,218.4 456.2,503.4 455.0,413.6 453.9,390.9 452.8,301.3 451.6,274.4 450.5,444.2 449.4,430.9 448.3,451.4 447.2,553.5 446.1,496.4 445.0,435.1 443.9,629.2 442.8,492.7 441.7,334.0 440.7,405.7 439.6,634.2 438.5,431.8 437.5,352.7 436.4,453.9 435.3,478.0 434.3,414.2 433.2,472.4 432.2,395.8 431.2,339.1 430.1,351.9 429.1,403.4 428.1,404.2 427.1,370.3 426.1,433.3 425.0,547.7 424.0,523.9 423.0,406.9 422.0,443.0 421.0,564.2 420.0,123.8 419.1,389.6 418.1,539.4 417.1,492.5 416.1,490.5 415.2,479.0 414.2,510.4 413.2,345.4 412.3,435.4 411.3,368.4 410.4,352.3 409.4,385.3 408.5,424.7 407.5,475.7 406.6,331.6 405.7,225.8 404.7,511.1 403.8,358.8 402.9,411.0 402.0,454.1 401.1,413.9 400.2,339.4 399.3,349.0 398.4,417.5 397.5,380.4 396.6,242.6 395.7,389.0 394.8,443.3 393.9,348.3 393.0,531.5 392.1,438.8 391.3,385.8 390.4,320.7 389.5,449.1 388.7,357.9 387.8,395.2 386.9,418.3 386.1,424.1 385.2,394.2 384.4,415.9 383.5,409.6 382.7,420.8 381.9,411.2 381.0,404.1 380.2,376.9 379.4,348.0 378.5,357.5 377.7,444.6 376.9,316.4 376.1,277.8 375.2,355.4 374.4,365.9 373.6,443.1 372.8,409.9 372.0,377.1 371.2,386.0 370.4,436.1 369.6,357.5 368.8,486.4 368.0,363.2 367.2,358.0 366.5,451.7 365.7,394.6 364.9,350.4 364.1,440.9 363.3,322.9 362.6,397.3 361.8,413.6 361.0,465.1 360.3,401.1 359.5,378.0 358.7,452.3 358.0,398.2 357.2,448.9 356.5,342.4 355.7,375.9 355.0,412.2 354.2,408.5 353.5,412.1 352.7,451.9 352.0,397.2 351.3,424.3 350.5,399.1 349.8,384.0 349.0,371.8 348.3,419.8 347.6,384.2 346.9,375.5 346.1,381.5 345.4,454.9 344.7,370.9 344.0,409.4 343.3,370.1 342.5,419.9 341.8,376.5 341.1,382.5 340.4,438.6 339.7,428.7 339.0,360.4 338.3,413.2 337.6,454.4 336.9,392.1 336.2,354.3 335.5,392.4 334.8,318.6 334.1,351.6 333.4,353.5 332.7,344.1 332.0,371.0 331.3,339.8 330.7,368.9 330.0,393.0 329.3,314.9 328.6,371.4 327.9,428.1 327.2,344.8 326.6,368.1 325.9,342.9 325.2,401.9 324.5,383.0 323.9,355.9 323.2,395.9 322.5,387.3 321.8,359.3 321.2,399.7 320.5,374.9 319.8,340.3 319.2,324.2 318.5,330.1 317.8,334.6 317.2,266.0 316.5,316.0 315.9,278.6 315.2,205.3 314.5,281.6 313.9,365.7 313.2,324.7 312.6,328.0 311.9,357.9 311.2,392.8 310.6,396.1 309.9,430.8 309.3,436.4 308.6,385.1 308.0,381.9 307.3,362.8 306.7,380.8 306.0,397.6 305.4,406.7 304.7,309.9 304.1,392.5 303.4,361.3 302.8,323.6 302.1,345.7 301.5,319.7 300.8,334.2 300.2,393.5 299.5,286.4 298.9,351.2 298.2,347.3 297.6,340.6 296.9,338.9 296.3,389.4 295.7,428.4 295.0,392.0 294.4,345.3 293.7,378.0 293.1,374.8 292.4,336.4 291.8,362.7 291.1,335.9 290.5,328.0 289.8,268.6 289.2,296.7 288.5,276.0 287.9,286.6 287.3,320.8 286.6,249.5 286.0,305.6 285.3,331.7 284.7,330.4 284.0,303.1 283.4,343.1 282.7,342.0 282.1,349.4 281.4,357.1 280.8,340.3 280.1,394.4 279.5,381.9 278.8,368.6 278.2,382.5 277.5,380.4 276.9,382.9 276.2,339.5 275.6,365.1 274.9,395.3 274.3,357.0 273.6,317.0 272.9,323.1 272.3,231.1 271.6,220.0 271.0,248.8 270.3,201.4 269.6,246.6 269.0,343.0 268.3,322.9 267.7,345.0 267.0,329.8 266.3,387.2 265.7,362.7 265.0,398.0 264.3,357.1 263.7,405.9 263.0,381.4 262.3,417.9 261.7,393.7 261.0,402.5 260.3,368.1 259.6,342.6 259.0,375.4 258.3,396.9 257.6,355.8 256.9,370.3 256.2,326.0 255.5,348.2 254.9,337.8 254.2,348.3 253.5,350.7 252.8,372.0 252.1,358.8 251.4,342.7 250.7,326.0 250.0,423.5 249.3,370.2 248.6,372.7 247.9,387.9 247.2,430.6 246.5,391.6 245.8,372.9 245.1,386.0 244.4,381.0 243.7,431.9 243.0,425.7 242.3,417.2 241.6,461.0 240.8,347.0 240.1,373.7 239.4,385.5 238.7,351.9 238.0,400.5 237.2,389.6 236.5,390.5 235.8,395.2 235.0,343.3 234.3,283.4 233.6,290.5 232.8,284.3 232.1,281.8 231.3,261.8 230.6,282.6 229.9,312.2 229.1,307.0 228.4,392.1 227.6,374.7 226.8,351.2 226.1,346.4 225.3,403.7 224.6,399.8 223.8,312.1 223.0,401.3 222.3,338.8 221.5,375.8 220.7,319.1 219.9,404.9 219.1,417.7 218.4,455.5 217.6,439.1 216.8,347.7 216.0,374.4 215.2,344.1 214.4,333.1 213.6,348.7 212.8,336.5 212.0,379.3 211.2,395.2 210.4,315.9 209.6,328.1 208.7,394.4 207.9,362.1 207.1,349.9 206.3,365.3 205.4,293.5 204.6,370.0 203.8,322.9 202.9,370.2 202.1,394.3 201.3,377.2 200.4,388.5 199.6,370.8 198.7,433.4 197.9,398.5 197.0,348.1 196.1,451.5 195.3,412.5 194.4,376.2 193.5,351.0 192.6,454.3 191.8,390.6 190.9,444.7 190.0,346.0 189.1,427.8 188.2,403.2 187.3,372.4 186.4,426.4 185.5,348.5 184.6,395.7 183.7,350.7 182.8,403.1 181.9,388.0 180.9,426.4 180.0,400.5 179.1,417.7 178.2,433.5 177.2,349.4 176.3,408.9 175.3,404.9 174.4,376.4 173.4,410.4 172.5,420.9 171.5,401.1 170.6,340.3 169.6,410.9 168.6,498.3 167.7,378.5 166.7,366.6 165.7,375.1 164.7,440.8 163.7,421.2 162.7,364.2 161.7,387.7 160.7,400.2 159.7,433.0 158.7,388.8 157.7,418.0 156.7,508.1 155.6,250.5 154.6,595.2" />
</g>
</g>

<g id="Axes">
<g id="Axis_0">
<polyline style="stroke-linecap:square;stroke:rgb(0,0,0);stroke-dasharray:2000,1;stroke-width:1;"
  points="75.2,719.5 547.6,719.5" />
<polyline style="stroke-linecap:square;stroke:rgb(0,0,0);stroke-dasharray:2000,1;stroke-width:1;"
  points="75.2,719.5 75.2,691.0" />
<path style="stroke-linecap:square;stroke:rgb(0,0,0);stroke-dasharray:2000,1;stroke-width:1;" d=" M 94.1,719.5 L 94.1,705.2 M 113.0,719.5 L 113.0,705.2 M 131.9,719.5 L 131.9,705.2 M 150.8,719.5 L 150.8,705.2" />
<polyline style="stroke-linecap:square;stroke:rgb(0,0,0);stroke-dasharray:2000,1;stroke-width:1;"
  points="169.7,719.5 169.7,691.0" />
<path style="stroke-linecap:square;stroke:rgb(0,0,0);stroke-dasharray:2000,1;stroke-width:1;" d=" M 188.6,719.5 L 188.6,705.2 M 207.5,719.5 L 207.5,705.2 M 226.4,719.5 L 226.4,705.2 M 245.2,719.5 L 245.2,705.2" />
<polyline style="stroke-linecap:square;stroke:rgb(0,0,0);stroke-dasharray:2000,1;stroke-width:1;"
  points="264.1,719.5 264.1,691.0" />
<path style="stroke-linecap:square;stroke:rgb(0,0,0);stroke-dasharray:2000,1;stroke-width:1;" d=" M 283.0,719.5 L 283.0,705.2 M 301.9,719.5 L 301.9,705.2 M 320.8,719.5 L 320.8,705.2 M 339.7,719.5 L 339.7,705.2" />
<polyline style="stroke-linecap:square;stroke:rgb(0,0,0);stroke-dasharray:2000,1;stroke-width:1;"
  points="358.6,719.5 358.6,691.0" />
<path style="stroke-linecap:square;stroke:rgb(0,0,0);stroke-dasharray:2000,1;stroke-width:1;" d=" M 377.5,719.5 L 377.5,705.2 M 396.4,719.5 L 396.4,705.2 M 415.3,719.5 L 415.3,705.2 M 434.2,719.5 L 434.2,705.2" />
<polyline style="stroke-linecap:square;stroke:rgb(0,0,0);stroke-dasharray:2000,1;stroke-width:1;"
  points="453.1,719.5 453.1,691.0" />
<path style="stroke-linecap:square;stroke:rgb(0,0,0);stroke-dasharray:2000,1;stroke-width:1;" d=" M 472.0,719.5 L 472.0,705.2 M 490.9,719.5 L 490.9,705.2 M 509.8,719.5 L 509.8,705.2 M 528.7,719.5 L 528.7,705.2" />
<polyline style="stroke-linecap:square;stroke:rgb(0,0,0);stroke-dasharray:2000,1;stroke-width:1;"
  points="547.6,719.5 547.6,691.0" />
<text style="font-family:DejaVuSans;font-size:9pt;fill:rgb(0,0,0);text-anchor:middle;" x="75.2" y="719.5" dy="1.1em">6450</text>
<text style="font-family:DejaVuSans;font-size:9pt;fill:rgb(0,0,0);text-anchor:middle;" x="169.7" y="719.5" dy="1.1em">6500</text>
<text style="font-family:DejaVuSans;font-size:9pt;fill:rgb(0,0,0);text-anchor:middle;" x="264.1" y="719.5" dy="1.1em">6550</text>
<text style="font-family:DejaVuSans;font-size:9pt;fill:rgb(0,0,0);text-anchor:middle;" x="358.6" y="719.5" dy="1.1em">6600</text>
<text style="font-family:DejaVuSans;font-size:9pt;fill:rgb(0,0,0);text-anchor:middle;" x="453.1" y="719.5" dy="1.1em">6650</text>
<text style="font-family:DejaVuSans;font-size:9pt;fill:rgb(0,0,0);text-anchor:middle;" x="547.6" y="719.5" dy="1.1em">6700</text>
</g>
<g id="Axis_1">
<polyline style="stroke-linecap:square;stroke:rgb(0,0,0);stroke-dasharray:2000,1;stroke-width:1;"
  points="75.2,719.5 75.2,98.4" />
<polyline style="stroke-linecap:square;stroke:rgb(0,0,0);stroke-dasharray:2000,1;stroke-width:1;"
  points="75.2,719.5 91.7,719.5" />
<path style="stroke-linecap:square;stroke:rgb(0,0,0);stroke-dasharray:2000,1;stroke-width:1;" d=" M 75.2,697.3 L 83.4,697.3 M 75.2,675.2 L 83.4,675.2 M 75.2,653.0 L 83.4,653.0" />
<polyline style="stroke-linecap:square;stroke:rgb(0,0,0);stroke-dasharray:2000,1;stroke-width:1;"
  points="75.2,630.8 91.7,630.8" />
<path style="stroke-linecap:square;stroke:rgb(0,0,0);stroke-dasharray:2000,1;stroke-width:1;" d=" M 75.2,608.6 L 83.4,608.6 M 75.2,586.4 L 83.4,586.4 M 75.2,564.2 L 83.4,564.2" />
<polyline style="stroke-linecap:square;stroke:rgb(0,0,0);stroke-dasharray:2000,1;stroke-width:1;"
  points="75.2,542.1 91.7,542.1" />
<path style="stroke-linecap:square;stroke:rgb(0,0,0);stroke-dasharray:2000,1;stroke-width:1;" d=" M 75.2,519.9 L 83.4,519.9 M 75.2,497.7 L 83.4,497.7 M 75.2,475.5 L 83.4,475.5" />
<polyline style="stroke-linecap:square;stroke:rgb(0,0,0);stroke-dasharray:2000,1;stroke-width:1;"
  points="75.2,453.3 91.7,453.3" />
<path style="stroke-linecap:square;stroke:rgb(0,0,0);stroke-dasharray:2000,1;stroke-width:1;" d=" M 75.2,431.1 L 83.4,431.1 M 75.2,409.0 L 83.4,409.0 M 75.2,386.8 L 83.4,386.8" />
<polyline style="stroke-linecap:square;stroke:rgb(0,0,0);stroke-dasharray:2000,1;stroke-width:1;"
  points="75.2,364.6 91.7,364.6" />
<path style="stroke-linecap:square;stroke:rgb(0,0,0);stroke-dasharray:2000,1;stroke-width:1;" d=" M 75.2,342.4 L 83.4,342.4 M 75.2,320.2 L 83.4,320.2 M 75.2,298.1 L 83.4,298.1" />
<polyline style="stroke-linecap:square;stroke:rgb(0,0,0);stroke-dasharray:2000,1;stroke-width:1;"
  points="75.2,275.9 91.7,275.9" />
<path style="stroke-linecap:square;stroke:rgb(0,0,0);stroke-dasharray:2000,1;stroke-width:1;" d=" M 75.2,253.7 L 83.4,253.7 M 75.2,231.5 L 83.4,231.5 M 75.2,209.3 L 83.4,209.3" />
<polyline style="stroke-linecap:square;stroke:rgb(0,0,0);stroke-dasharray:2000,1;stroke-width:1;"
  points="75.2,187.1 91.7,187.1" />
<path style="stroke-linecap:square;stroke:rgb(0,0,0);stroke-dasharray:2000,1;stroke-width:1;" d=" M 75.2,165.0 L 83.4,165.0 M 75.2,142.8 L 83.4,142.8 M 75.2,120.6 L 83.4,120.6" />
<polyline style="stroke-linecap:square;stroke:rgb(0,0,0);stroke-dasharray:2000,1;stroke-width:1;"
  points="75.2,98.4 91.7,98.4" />
<text style="font-family:DejaVuSans;font-size:9pt;fill:rgb(0,0,0);text-anchor:end;alignment-baseline:central;" x="75.2" dx="-0.3em" y="719.5">-0.006</text>
<text style="font-family:DejaVuSans;font-size:9pt;fill:rgb(0,0,0);text-anchor:end;alignment-baseline:central;" x="75.2" dx="-0.3em" y="630.8">-0.004</text>
<text style="font-family:DejaVuSans;font-size:9pt;fill:rgb(0,0,0);text-anchor:end;alignment-baseline:central;" x="75.2" dx="-0.3em" y="542.1">-0.002</text>
<text style="font-family:DejaVuSans;font-size:9pt;fill:rgb(0,0,0);text-anchor:end;alignment-baseline:central;" x="75.2" dx="-0.3em" y="453.3">0.000</text>
<text style="font-family:DejaVuSans;font-size:9pt;fill:rgb(0,0,0);text-anchor:end;alignment-baseline:central;" x="75.2" dx="-0.3em" y="364.6">0.002</text>
<text style="font-family:DejaVuSans;font-size:9pt;fill:rgb(0,0,0);text-anchor:end;alignment-baseline:central;" x="75.2" dx="-0.3em" y="275.9">0.004</text>
<text style="font-family:DejaVuSans;font-size:9pt;fill:rgb(0,0,0);text-anchor:end;alignment-baseline:central;" x="75.2" dx="-0.3em" y="187.1">0.006</text>
<text style="font-family:DejaVuSans;font-size:9pt;fill:rgb(0,0,0);text-anchor:end;alignment-baseline:central;" x="75.2" dx="-0.3em" y="98.4">0.008</text>
</g>
<g id="Axis_2">
<polyline style="stroke-linecap:square;stroke:rgb(0,0,0);stroke-dasharray:2000,1;stroke-width:1;"
  points="75.2,98.4 547.6,98.4" />
<polyline style="stroke-linecap:square;stroke:rgb(0,0,0);stroke-dasharray:2000,1;stroke-width:1;"
  points="75.2,98.4 75.2,127.0" />
<path style="stroke-linecap:square;stroke:rgb(0,0,0);stroke-dasharray:2000,1;stroke-width:1;" d=" M 94.1,98.4 L 94.1,112.7 M 113.0,98.4 L 113.0,112.7 M 131.9,98.4 L 131.9,112.7 M 150.8,98.4 L 150.8,112.7" />
<polyline style="stroke-linecap:square;stroke:rgb(0,0,0);stroke-dasharray:2000,1;stroke-width:1;"
  points="169.7,98.4 169.7,127.0" />
<path style="stroke-linecap:square;stroke:rgb(0,0,0);stroke-dasharray:2000,1;stroke-width:1;" d=" M 188.6,98.4 L 188.6,112.7 M 207.5,98.4 L 207.5,112.7 M 226.4,98.4 L 226.4,112.7 M 245.2,98.4 L 245.2,112.7" />
<polyline style="stroke-linecap:square;stroke:rgb(0,0,0);stroke-dasharray:2000,1;stroke-width:1;"
  points="264.1,98.4 264.1,127.0" />
<path style="stroke-linecap:square;stroke:rgb(0,0,0);stroke-dasharray:2000,1;stroke-width:1;" d=" M 283.0,98.4 L 283.0,112.7 M 301.9,98.4 L 301.9,112.7 M 320.8,98.4 L 320.8,112.7 M 339.7,98.4 L 339.7,112.7" />
<polyline style="stroke-linecap:square;stroke:rgb(0,0,0);stroke-dasharray:2000,1;stroke-width:1;"
  points="358.6,98.4 358.6,127.0" />
<path style="stroke-linecap:square;stroke:rgb(0,0,0);stroke-dasharray:2000,1;stroke-width:1;" d=" M 377.5,98.4 L 377.5,112.7 M 396.4,98.4 L 396.4,112.7 M 415.3,98.4 L 415.3,112.7 M 434.2,98.4 L 434.2,112.7" />
<polyline style="stroke-linecap:square;stroke:rgb(0,0,0);stroke-dasharray:2000,1;stroke-width:1;"
  points="453.1,98.4 453.1,127.0" />
<path style="stroke-linecap:square;stroke:rgb(0,0,0);stroke-dasharray:2000,1;stroke-width:1;" d=" M 472.0,98.4 L 472.0,112.7 M 490.9,98.4 L 490.9,112.7 M 509.8,98.4 L 509.8,112.7 M 528.7,98.4 L 528.7,112.7" />
<polyline style="stroke-linecap:square;stroke:rgb(0,0,0);stroke-dasharray:2000,1;stroke-width:1;"
  points="547.6,98.4 547.6,127.0" />
</g>
<g id="Axis_3">
<polyline style="stroke-linecap:square;stroke:rgb(0,0,0);stroke-dasharray:2000,1;stroke-width:1;"
  points="547.6,719.5 547.6,98.4" />
<polyline style="stroke-linecap:square;stroke:rgb(0,0,0);stroke-dasharray:2000,1;stroke-width:1;"
  points="547.6,719.5 531.1,719.5" />
<path style="stroke-linecap:square;stroke:rgb(0,0,0);stroke-dasharray:2000,1;stroke-width:1;" d=" M 547.6,697.3 L 539.3,697.3 M 547.6,675.2 L 539.3,675.2 M 547.6,653.0 L 539.3,653.0" />
<polyline style="stroke-linecap:square;stroke:rgb(0,0,0);stroke-dasharray:2000,1;stroke-width:1;"
  points="547.6,630.8 531.1,630.8" />
<path style="stroke-linecap:square;stroke:rgb(0,0,0);stroke-dasharray:2000,1;stroke-width:1;" d=" M 547.6,608.6 L 539.3,608.6 M 547.6,586.4 L 539.3,586.4 M 547.6,564.2 L 539.3,564.2" />
<polyline style="stroke-linecap:square;stroke:rgb(0,0,0);stroke-dasharray:2000,1;stroke-width:1;"
  points="547.6,542.1 531.1,542.1" />
<path style="stroke-linecap:square;stroke:rgb(0,0,0);stroke-dasharray:2000,1;stroke-width:1;" d=" M 547.6,519.9 L 539.3,519.9 M 547.6,497.7 L 539.3,497.7 M 547.6,475.5 L 539.3,475.5" />
<polyline style="stroke-linecap:square;stroke:rgb(0,0,0);stroke-dasharray:2000,1;stroke-width:1;"
  points="547.6,453.3 531.1,453.3" />
<path style="stroke-linecap:square;stroke:rgb(0,0,0);stroke-dasharray:2000,1;stroke-width:1;" d=" M 547.6,431.1 L 539.3,431.1 M 547.6,409.0 L 539.3,409.0 M 547.6,386.8 L 539.3,386.8" />
<polyline style="stroke-linecap:square;stroke:rgb(0,0,0);stroke-dasharray:2000,1;stroke-width:1;"
  points="547.6,364.6 531.1,364.6" />
<path style="stroke-linecap:square;stroke:rgb(0,0,0);stroke-dasharray:2000,1;stroke-width:1;" d=" M 547.6,342.4 L 539.3,342.4 M 547.6,320.2 L 539.3,320.2 M 547.6,298.1 L 539.3,298.1" />
<polyline style="stroke-linecap:square;stroke:rgb(0,0,0);stroke-dasharray:2000,1;stroke-width:1;"
  points="547.6,275.9 531.1,275.9" />
<path style="stroke-linecap:square;stroke:rgb(0,0,0);stroke-dasharray:2000,1;stroke-width:1;" d=" M 547.6,253.7 L 539.3,253.7 M 547.6,231.5 L 539.3,231.5 M 547.6,209.3 L 539.3,209.3" />
<polyline style="stroke-linecap:square;stroke:rgb(0,0,0);stroke-dasharray:2000,1;stroke-width:1;"
  points="547.6,187.1 531.1,187.1" />
<path style="stroke-linecap:square;stroke:rgb(0,0,0);stroke-dasharray:2000,1;stroke-width:1;" d=" M 547.6,165.0 L 539.3,165.0 M 547.6,142.8 L 539.3,142.8 M 547.6,120.6 L 539.3,120.6" />
<polyline style="stroke-linecap:square;stroke:rgb(0,0,0);stroke-dasharray:2000,1;stroke-width:1;"
  points="547.6,98.4 531.1,98.4" />
</g>
</g>
</g>
<g id="Data_Space_1">

<g id="Background_1">
</g>
</g>
</svg>
